<svg id="Layer_1" data-name="Layer 1" xmlns="http://www.w3.org/2000/svg" xmlns:xlink="http://www.w3.org/1999/xlink" width="860.4" height="860.4" viewBox="0 0 860.4 860.4">
  <defs>
    <style>
      .cls-1 {
        fill: #1e9bff;
      }

      .cls-2 {
        fill: #345d9d;
      }

      .cls-3 {
        fill: #f28d32;
      }

      .cls-4 {
        fill: #f6d49e;
      }

      .cls-5 {
        opacity: 0.5;
      }

      .cls-6 {
        fill: #fdfdf7;
      }

      .cls-7, .cls-8 {
        fill-rule: evenodd;
      }

      .cls-7 {
        fill: url(#linear-gradient);
      }

      .cls-8 {
        fill: url(#linear-gradient-2);
      }

      .cls-9 {
        fill: #e73628;
      }

      .cls-10 {
        fill: #b71c1c;
      }

      .cls-11 {
        fill: #e10b16;
      }

      .cls-12 {
        fill: #fffdec;
        opacity: 0.9;
        isolation: isolate;
      }
    </style>
    <linearGradient id="linear-gradient" x1="457.77" y1="-785.96" x2="804.17" y2="-785.96" gradientTransform="translate(0 1215.09)" gradientUnits="userSpaceOnUse">
      <stop offset="0" stop-color="#fff"/>
      <stop offset="0.2" stop-color="#fefbfd"/>
      <stop offset="0.4" stop-color="#faf0f9"/>
      <stop offset="0.59" stop-color="#f5ddf1"/>
      <stop offset="0.77" stop-color="#ecc2e6"/>
      <stop offset="0.96" stop-color="#e29fd9"/>
      <stop offset="1" stop-color="#df96d5"/>
    </linearGradient>
    <linearGradient id="linear-gradient-2" x1="94.77" y1="-786.01" x2="441.07" y2="-786.01" gradientTransform="translate(0 1215.09)" gradientUnits="userSpaceOnUse">
      <stop offset="0" stop-color="#df96d5"/>
      <stop offset="0.04" stop-color="#e29fd9"/>
      <stop offset="0.23" stop-color="#ecc2e6"/>
      <stop offset="0.41" stop-color="#f5ddf1"/>
      <stop offset="0.6" stop-color="#faf0f9"/>
      <stop offset="0.8" stop-color="#fefbfd"/>
      <stop offset="1" stop-color="#fff"/>
    </linearGradient>
  </defs>
  <g>
    <g>
      <circle class="cls-1" cx="430.2" cy="430.2" r="430.2"/>
      <circle class="cls-2" cx="430.2" cy="430.2" r="409.6"/>
    </g>
    <g>
      <g>
        <path class="cls-3" d="M548.37,324.63s-.3,1.8-.8,4.1c-9.5-13-49.9-22.7-98.3-22.7-47.7,0-87.6,9.5-97.8,22.1l1-6.3c-5.4,4.6-3.5,12.7-3.5,12.7,0,15.8,45,28.5,100.4,28.5,52.6,0,95.7-11.5,100-26.2A14.23,14.23,0,0,0,548.37,324.63Zm-99.1,28.1c-47.3,0-85.7-8.9-85.7-19.9s38.3-19.9,85.7-19.9,85.7,8.9,85.7,19.9S496.57,352.73,449.27,352.73Z" transform="translate(-20.07 -12.93)"/>
        <path class="cls-4" d="M449.27,300.73c-55.5,0-100.4,12.8-100.4,28.5s45,28.5,100.4,28.5,100.4-12.8,100.4-28.5S504.77,300.73,449.27,300.73Zm0,46.6c-47.3,0-85.7-8.9-85.7-19.9s38.3-19.9,85.7-19.9,85.7,8.9,85.7,19.9S496.57,347.33,449.27,347.33Z" transform="translate(-20.07 -12.93)"/>
        <g class="cls-5">
          <path class="cls-6" d="M428.87,303.63s-2.4.3-6.5.9-10,1.5-17.1,2.7-15.2,2.9-23.8,5.2a131.73,131.73,0,0,0-13,4.3,60.93,60.93,0,0,0-6.3,3c-3.7,2.1-6.9,6.3-5,11.4,2.2,5.7,8,8.6,12.8,10.6a182.18,182.18,0,0,0,23.3,7.5c7,1.7,12.8,2.9,16.9,3.5s6.5,1,6.5,1-.6,0-1.7-.1-2.8-.1-4.8-.3a167.73,167.73,0,0,1-17.2-2.4c-3.5-.7-7.3-1.5-11.3-2.6s-8.2-2.4-12.5-4a59.23,59.23,0,0,1-6.4-2.8,28.9,28.9,0,0,1-6.3-4,12.61,12.61,0,0,1-4.4-7.3,9.36,9.36,0,0,1,.4-4.7,20,20,0,0,1,1-2.1c.5-.7.9-1.2,1.3-1.7A24.78,24.78,0,0,1,361,317a57.87,57.87,0,0,1,6.7-3.1,102.35,102.35,0,0,1,13.4-4.1c4.4-1.1,8.7-1.9,12.7-2.6s7.9-1.2,11.5-1.7c7.1-.9,13.1-1.3,17.2-1.6S428.87,303.63,428.87,303.63Z" transform="translate(-20.07 -12.93)"/>
        </g>
      </g>
      <g>
        <g>
          <path class="cls-7" d="M457.77,532.23l.3-1.5v.1l.1-.3c29.8-188.3,170.7-177.9,264.2-189.6a827.07,827.07,0,0,0,81.8-14.9c-56.2,98.1-172.5,38.9-278.5,99.2-20.2,11.5-32.6,24.7-42.8,43.5,50.6-71.5,157.1-64.8,222.3-75.7,14.1-2.4,31.2-4.7,52-9.5-44.3,77.2-187,5.5-264.8,88.2,42.2-34,110.8-32.5,150.7-37.3,9.8-1.2,21.6-2.3,36-4.9-28.7,47.3-119.7,11.5-179.1,47.3,30.1-10.2,65.7-9.2,88.8-11.4,7.5-.7,16.5-1.3,27.6-3-31.7,50.5-120.4-18-154.5,59.2C460.37,525,459.07,528.53,457.77,532.23Z" transform="translate(-20.07 -12.93)"/>
          <path class="cls-8" d="M441.07,532.23l-.3-1.5v.1l-.1-.3c-29.7-188.3-170.7-178-264.1-189.7a827.07,827.07,0,0,1-81.8-14.9c56.2,98.1,172.5,38.9,278.5,99.2,20.2,11.5,32.6,24.7,42.8,43.5-50.6-71.5-157.1-64.8-222.3-75.7-14.1-2.4-31.2-4.7-52-9.5,44.3,77.2,187,5.5,264.8,88.2-42.2-34-110.8-32.5-150.7-37.3-9.8-1.2-21.6-2.3-36-4.9,28.6,47.4,119.7,11.6,179.1,47.4-30.1-10.2-65.7-9.2-88.8-11.4-7.5-.7-16.5-1.3-27.6-3,31.7,50.5,120.4-18,154.5,59.2C438.47,525,439.77,528.53,441.07,532.23Z" transform="translate(-20.07 -12.93)"/>
        </g>
        <g>
          <g>
            <path class="cls-9" d="M526.17,394.43c-31.3-5.9-58.2,5.5-76,21.7-17.4-16.7-43.9-28.9-75.4-23.9-60.8,9.7-72.5,81.4-41.2,126.1,28.2,40.2,68.3,72.9,110.1,102.6,1.2.9,2.4,1.7,3.6,2.6,1.2-.8,2.5-1.6,3.7-2.5,42.5-28.5,83.6-60,112.9-99.4C596.37,477.83,586.67,405.83,526.17,394.43Z" transform="translate(-20.07 -12.93)"/>
            <path class="cls-10" d="M447.17,624.83a2.35,2.35,0,0,1-.8-.2c-1.2-.8-2.4-1.7-3.6-2.6-67.6-48.1-94.5-80.3-110.4-102.9-18.1-25.8-22.2-60.2-10.6-87.6,9.4-22.3,28.1-36.7,52.7-40.5a88.6,88.6,0,0,1,75.7,23.3,89.43,89.43,0,0,1,59.3-22.8,87.92,87.92,0,0,1,16.9,1.6c24.4,4.6,42.7,19.5,51.5,42,10.8,27.7,5.7,62-13.1,87.3-16.5,22.2-44.3,53.6-113.2,99.7-1.2.8-2.5,1.6-3.7,2.5A1.45,1.45,0,0,1,447.17,624.83ZM389,392.43a95.39,95.39,0,0,0-14,1.1c-23.6,3.8-41.6,17.6-50.7,39-11.1,26.2-7,60.4,10.3,85.1,15.8,22.5,42.5,54.4,109.8,102.3,1,.7,1.9,1.4,2.9,2,1-.7,2-1.3,2.9-2,68.6-45.9,96.2-77.1,112.6-99.1,18-24.2,23.1-58.2,12.7-84.8-8.5-21.6-26.1-36-49.6-40.4a91.8,91.8,0,0,0-16.4-1.5,87.14,87.14,0,0,0-58.5,23,1.27,1.27,0,0,1-1.8,0A86.19,86.19,0,0,0,389,392.43Z" transform="translate(-20.07 -12.93)"/>
          </g>
          <path class="cls-11" d="M579.47,444.23a100.21,100.21,0,0,1-13.5,63.3c-18.2,30.1-50.3,51.6-83.5,61.9-17,5.3-35.1,8-52.8,5.7a120.37,120.37,0,0,1-48.1-17.5c-14.6-9.1-28.6-20.3-38.8-34.3a127.68,127.68,0,0,1-21.1-47.3,95,95,0,0,1-1.3-36.4c-7.7,25.3-3,55.6,13.2,78.7,28.2,40.2,68.3,72.9,110.1,102.6,1.2.9,2.4,1.7,3.6,2.6,1.2-.8,2.5-1.6,3.7-2.5,42.5-28.5,83.6-60,112.9-99.4C580.37,499.23,586,469.53,579.47,444.23Z" transform="translate(-20.07 -12.93)"/>
          <path class="cls-9" d="M397.27,534.13a180.84,180.84,0,0,0,73.6,4.2c24.9-3.6,51.5-11.1,71-27.8,9.1-7.8,16.5-17.7,19.9-29.3a77.56,77.56,0,0,0,2.5-28.5c-4.6-22.9-20-42.4-47.6-47.6-27.4-5.2-50.9,4.8-66.5,19-15.2-14.7-38.4-25.3-65.9-20.9-36.3,5.8-61.2,46.9-48.7,82C345.37,513.23,369.87,526.73,397.27,534.13Z" transform="translate(-20.07 -12.93)"/>
          <path class="cls-12" d="M417.47,420.73a27.75,27.75,0,0,0-13.3-9c-5.3-1.7-11.5-1.6-17-1.2-10.5.8-19.5,5.9-27,12.9-7.1,6.6-11.1,16.6-11.8,26.2-.8,11.4,8.1,19.1,18.5,21.1s22.5-1.4,32-5.8c8.1-3.7,17.8-10.1,21.8-18.4A23.8,23.8,0,0,0,417.47,420.73Z" transform="translate(-20.07 -12.93)"/>
          <path class="cls-12" d="M354.67,476.63a4.83,4.83,0,0,0-2-1.4,7.44,7.44,0,0,0-2.6-.2,6.66,6.66,0,0,0-4.1,2,5.92,5.92,0,0,0-1.8,3.9,3.15,3.15,0,0,0,2.8,3.2,8,8,0,0,0,4.8-.9,6.94,6.94,0,0,0,3.3-2.8A3.3,3.3,0,0,0,354.67,476.63Z" transform="translate(-20.07 -12.93)"/>
        </g>
      </g>
    </g>
  </g>
</svg>
